<?xml version="1.0" standalone="no"?>
<!DOCTYPE svg PUBLIC "-//W3C//DTD SVG 20010904//EN"
 "http://www.w3.org/TR/2001/REC-SVG-20010904/DTD/svg10.dtd">
<svg version="1.0" xmlns="http://www.w3.org/2000/svg"
 width="688.000000pt" height="690.000000pt" viewBox="0 0 688.000000 690.000000"
 preserveAspectRatio="xMidYMid meet">

<g transform="translate(0.000000,690.000000) scale(0.100000,-0.100000)"
fill="#000000" stroke="none">
<path d="M3180 6814 c-19 -2 -77 -9 -128 -14 -191 -21 -464 -82 -674 -151
-711 -234 -1342 -720 -1761 -1359 -281 -429 -450 -893 -529 -1450 -17 -117
-17 -678 0 -795 99 -705 348 -1274 780 -1788 l73 -87 -245 0 c-239 0 -246 -1
-246 -20 0 -19 7 -20 263 -20 l262 -1 115 -110 c420 -405 929 -696 1465 -839
284 -75 504 -107 795 -117 911 -29 1786 309 2436 940 l141 137 262 0 c254 0
261 1 261 20 0 19 -7 20 -241 20 l-241 0 19 23 c10 13 58 73 106 133 768 951
951 2277 473 3418 -316 752 -918 1384 -1656 1738 -251 120 -573 226 -814 269
-267 47 -302 50 -591 53 -159 2 -306 2 -325 0z m550 -274 c386 -34 764 -142
1115 -320 323 -164 561 -337 817 -597 348 -351 594 -754 743 -1213 216 -668
205 -1354 -32 -2034 -48 -140 -206 -457 -298 -601 -595 -929 -1620 -1475
-2705 -1441 -214 6 -325 18 -505 52 -889 169 -1661 720 -2115 1509 -204 353
-326 716 -390 1155 -18 124 -24 509 -11 659 82 920 553 1738 1311 2278 423
300 979 506 1491 552 136 12 446 12 579 1z"/>
<path d="M3370 5299 c-51 -30 -1917 -1896 -1947 -1947 -75 -126 56 -283 194
-232 16 6 421 404 928 911 l900 899 890 -890 c598 -598 903 -897 931 -910 52
-26 89 -25 144 3 61 30 95 96 85 165 -6 46 -14 55 -386 427 l-379 380 0 313
c0 349 0 351 -67 397 -73 49 -170 28 -227 -48 -19 -25 -21 -45 -24 -178 -2
-82 -7 -149 -10 -149 -4 0 -198 192 -432 426 -234 234 -437 432 -452 440 -39
21 -107 18 -148 -7z"/>
<path d="M2080 3318 c-33 -17 -51 -35 -68 -68 l-22 -45 0 -756 1 -757 22 -43
c16 -32 34 -50 67 -67 l45 -22 530 2 530 3 33 23 c58 42 73 87 72 220 -1 64
-1 246 -1 405 l1 287 150 0 150 0 1 -127 c0 -71 0 -244 -1 -387 0 -150 4 -275
10 -297 14 -52 63 -106 108 -119 25 -8 210 -10 559 -8 511 3 522 3 550 24 15
11 38 36 51 54 l22 33 0 777 0 777 -22 33 c-39 57 -72 75 -138 75 -64 -1 -96
-17 -134 -69 -21 -27 -21 -39 -24 -702 l-3 -674 -324 0 -325 0 0 402 c0 386
-1 403 -21 444 -12 26 -36 53 -57 66 -36 23 -43 23 -367 26 -364 4 -416 -1
-457 -46 -48 -51 -48 -49 -48 -481 l0 -411 -325 0 -325 0 0 203 c0 111 -1 409
-3 662 -2 442 -3 462 -23 500 -14 28 -34 47 -65 62 -57 28 -94 28 -149 1z"/>
<path d="M1603 1291 c-28 -66 3 -110 34 -47 10 22 24 36 35 36 16 0 18 -10 18
-95 0 -83 -3 -97 -20 -112 -39 -34 -25 -43 60 -43 64 0 80 3 80 15 0 8 -9 19
-20 25 -18 10 -20 21 -20 110 0 93 1 100 20 100 13 0 25 -12 35 -36 16 -38 38
-42 43 -7 2 11 -3 35 -10 53 l-13 32 -114 2 -114 1 -14 -34z"/>
<path d="M3995 1323 c-115 -4 -123 -7 -99 -34 27 -30 28 -197 1 -227 -10 -11
-15 -22 -10 -25 5 -3 58 -7 118 -8 108 -3 110 -2 122 22 18 34 17 79 -1 79 -8
0 -21 -12 -28 -27 -11 -23 -21 -29 -56 -31 l-42 -3 0 45 c0 39 3 46 20 46 11
0 20 -7 20 -15 0 -8 7 -15 15 -15 11 0 15 12 15 50 0 38 -4 50 -15 50 -8 0
-15 -7 -15 -15 0 -8 -9 -15 -20 -15 -17 0 -20 7 -20 40 0 39 1 40 35 40 28 0
37 -5 50 -30 18 -34 45 -40 45 -10 0 27 -27 91 -37 88 -4 -1 -48 -4 -98 -5z"/>
<path d="M1908 1307 c-32 -12 -34 -19 -13 -37 22 -18 21 -182 -1 -204 -24 -25
-7 -36 57 -36 61 0 72 9 44 36 -21 21 -19 77 4 105 16 20 21 21 35 10 19 -16
23 -117 4 -123 -29 -10 8 -28 56 -28 60 0 72 7 52 29 -7 9 -16 43 -20 76 -11
95 -61 131 -120 84 l-26 -20 0 60 c0 57 -2 61 -22 60 -13 -1 -35 -6 -50 -12z"/>
<path d="M2600 1313 c-59 -21 -98 -105 -81 -170 21 -78 71 -115 151 -115 73 0
110 24 110 73 0 15 7 32 15 39 25 20 7 30 -56 30 -63 0 -72 -9 -43 -41 34 -37
-15 -69 -50 -33 -25 24 -33 45 -41 95 -9 57 6 89 41 89 18 0 29 -9 41 -34 17
-37 40 -49 67 -34 36 20 12 79 -41 99 -26 10 -89 11 -113 2z"/>
<path d="M2234 1226 c-42 -18 -64 -52 -64 -97 0 -75 82 -125 154 -95 19 8 37
24 41 36 9 27 0 37 -19 21 -21 -18 -80 -10 -84 11 -2 13 8 18 50 25 40 6 54
13 56 27 6 29 -18 64 -51 76 -38 13 -45 12 -83 -4z m63 -42 c6 -16 -12 -34
-34 -34 -7 0 -13 11 -13 25 0 18 5 25 20 25 11 0 23 -7 27 -16z"/>
<path d="M2860 1228 c-44 -12 -59 -25 -37 -34 13 -5 17 -19 17 -64 0 -33 -4
-62 -10 -65 -5 -3 -10 -13 -10 -21 0 -11 14 -14 59 -14 63 0 81 10 56 30 -18
15 -21 105 -3 116 6 4 14 2 16 -4 2 -7 12 -17 22 -22 38 -21 67 42 34 74 -21
21 -40 20 -64 -4 -14 -14 -20 -16 -20 -6 0 20 -20 24 -60 14z"/>
<path d="M3100 1229 c-39 -16 -59 -39 -66 -76 -13 -68 35 -125 106 -127 44 -1
90 27 90 54 0 22 -10 26 -27 9 -17 -17 -77 -7 -81 13 -3 14 7 19 48 24 29 4
54 13 57 20 11 30 -8 65 -42 80 -39 16 -50 17 -85 3z m57 -45 c6 -16 -12 -34
-34 -34 -7 0 -13 11 -13 25 0 18 5 25 20 25 11 0 23 -7 27 -16z"/>
<path d="M3314 1226 c-42 -18 -64 -52 -64 -97 0 -75 82 -125 154 -95 19 8 37
24 41 36 9 27 0 37 -19 21 -21 -18 -80 -10 -84 11 -2 13 8 18 50 25 40 6 54
13 56 27 6 29 -18 64 -51 76 -38 13 -45 12 -83 -4z m63 -42 c6 -16 -12 -34
-34 -34 -7 0 -13 11 -13 25 0 18 5 25 20 25 11 0 23 -7 27 -16z"/>
<path d="M3513 1228 c-27 -6 -43 -15 -43 -24 0 -8 5 -14 10 -14 14 0 13 -113
-1 -127 -20 -20 1 -33 56 -33 57 0 74 10 50 30 -32 26 -11 130 25 130 27 0 44
-124 18 -132 -6 -2 -8 -10 -4 -16 11 -18 116 -16 116 2 0 8 -4 17 -9 20 -5 3
-12 34 -16 68 -11 96 -61 133 -119 87 -21 -16 -26 -17 -26 -5 0 21 -10 24 -57
14z"/>
<path d="M4207 1229 c-30 -12 -46 -52 -30 -78 5 -9 29 -26 54 -38 45 -21 57
-45 28 -51 -9 -2 -29 9 -45 23 -24 22 -29 24 -42 11 -36 -36 41 -85 112 -69
88 19 95 96 10 128 -50 19 -63 32 -39 41 10 4 26 -3 41 -17 23 -21 25 -22 41
-6 16 16 16 18 -2 37 -24 23 -90 33 -128 19z"/>
<path d="M4422 1229 c-46 -9 -63 -27 -39 -40 24 -14 25 -163 1 -197 -21 -31
-13 -37 51 -37 64 0 72 6 51 37 -25 35 -21 49 10 38 19 -8 34 -6 60 6 69 33
86 123 34 176 -25 24 -36 29 -58 23 -15 -3 -35 -14 -44 -22 -16 -15 -18 -15
-18 0 0 22 -9 25 -48 16z m109 -66 c5 -15 9 -43 7 -62 -3 -31 -7 -36 -28 -36
-21 0 -27 7 -34 37 -17 69 31 122 55 61z"/>
<path d="M4690 1223 c-41 -21 -48 -56 -13 -61 15 -2 23 3 28 18 8 25 48 24 53
-1 2 -12 -7 -18 -35 -24 -59 -10 -83 -30 -83 -69 0 -53 48 -76 108 -50 24 10
39 11 46 4 14 -14 59 -13 74 2 16 16 15 38 -2 38 -16 0 -21 14 -31 82 -3 25
-12 52 -20 58 -25 21 -87 22 -125 3z m75 -123 c0 -18 -6 -26 -21 -28 -26 -4
-40 24 -23 45 18 21 44 11 44 -17z"/>
<path d="M4960 1233 c-8 -3 -27 -17 -42 -31 -23 -21 -28 -34 -28 -72 0 -39 5
-51 31 -76 25 -24 38 -29 75 -28 46 1 94 32 94 61 0 15 -16 17 -25 3 -3 -5
-22 -10 -40 -10 -40 0 -55 20 -55 75 0 48 25 58 54 22 12 -15 29 -27 39 -27
23 0 22 42 -2 64 -20 18 -77 29 -101 19z"/>
<path d="M5166 1225 c-16 -8 -35 -23 -42 -33 -19 -24 -17 -93 2 -121 22 -31
77 -53 112 -45 31 8 72 42 72 61 0 15 -16 17 -25 3 -9 -14 -68 -13 -83 2 -20
20 -14 25 36 33 76 11 90 34 50 80 -29 32 -83 42 -122 20z m68 -40 c6 -18 -32
-41 -45 -28 -14 14 0 43 21 43 10 0 20 -7 24 -15z"/>
</g>
</svg>
